<svg xmlns="http://www.w3.org/2000/svg" width="60" height="60" fill="none">
  <path fill="#737380" d="M30 5a25 25 0 1 0 0 50 25 25 0 0 0 0-50ZM17.675 45.7C18.75 43.45 25.3 41.25 30 41.25c4.7 0 11.25 2.2 12.325 4.45A19.732 19.732 0 0 1 30 50c-4.65 0-8.925-1.6-12.325-4.3ZM45.9 42.075c-3.575-4.35-12.25-5.825-15.9-5.825-3.65 0-12.325 1.475-15.9 5.825A19.82 19.82 0 0 1 10 30c0-11.025 8.975-20 20-20s20 8.975 20 20c0 4.55-1.55 8.75-4.1 12.075ZM30 15c-4.85 0-8.75 3.9-8.75 8.75s3.9 8.75 8.75 8.75 8.75-3.9 8.75-8.75S34.85 15 30 15Zm0 12.5a3.75 3.75 0 1 1 0-7.5 3.75 3.75 0 0 1 0 7.5Z"/>
</svg>
